# xmcd
#
# Track frame offsets: 
#        150
#        24031
#        44342
#        57495
#        76752
#        97922
#        108595
#        125851
#        138730
#        155791
#        182138
#        196889
#
# Disc length: 3234 seconds
#
# Revision: 0
# Processed by: cddbd v1.5.2PL0 Copyright (c) Steve Scherf et al.
# Submitted via: ExactAudioCopy v0.99pb5
#
DISCID=a30ca00c
DTITLE=Pete Staniforth - Mellow
DYEAR=1900
DGENRE=Folk
TTITLE0=Ballad of Billy Bush
TTITLE1=Ride On
TTITLE2=Belfast Mill
TTITLE3=Sonny's Dream
TTITLE4=Red to the Rose
TTITLE5=Go Move Shift
TTITLE6=I will love you
TTITLE7=Old Joe
TTITLE8=Big Black Fish
TTITLE9=Plymouth Sound
TTITLE10=The First Leaves of Autumn
TTITLE11=Rattling Bog
EXTD=
EXTT0=
EXTT1=
EXTT2=
EXTT3=
EXTT4=
EXTT5=
EXTT6=
EXTT7=
EXTT8=
EXTT9=
EXTT10=
EXTT11=
PLAYORDER=
